<svg width="1920" height="300" viewBox="0 0 1920 300" fill="none" xmlns="http://www.w3.org/2000/svg">
<mask id="mask0_220_552" style="mask-type:luminance" maskUnits="userSpaceOnUse" x="0" y="0" width="1920" height="300">
<path d="M1920 0H0V300H1920V0Z" fill="white"/>
</mask>
<g mask="url(#mask0_220_552)">
<path d="M1919 0V298H1V0H1919ZM1920 -1H0V299H1920V-1Z" fill="#F0F7FC" fill-opacity="0.3"/>
</g>
<mask id="mask1_220_552" style="mask-type:luminance" maskUnits="userSpaceOnUse" x="0" y="0" width="1920" height="300">
<path d="M1920 0H0V300H1920V0Z" fill="white"/>
</mask>
<g mask="url(#mask1_220_552)">
<path d="M166.66 105.73L-31.61 1.99L3.08 -64.32L201.35 39.42C219.66 49 226.74 71.61 217.16 89.92C207.58 108.23 184.97 115.31 166.66 105.73Z" fill="url(#paint0_linear_220_552)" fill-opacity="0.3"/>
</g>
<mask id="mask2_220_552" style="mask-type:luminance" maskUnits="userSpaceOnUse" x="0" y="0" width="1920" height="300">
<path d="M1920 0H0V300H1920V0Z" fill="white"/>
</mask>
<g mask="url(#mask2_220_552)">
<path d="M243.3 250.06L59.69 154L109.73 58.36L293.34 154.42C319.75 168.24 329.96 200.85 316.14 227.26C302.32 253.67 269.71 263.88 243.3 250.06Z" fill="url(#paint1_linear_220_552)" fill-opacity="0.3"/>
</g>
<mask id="mask3_220_552" style="mask-type:luminance" maskUnits="userSpaceOnUse" x="0" y="0" width="1920" height="300">
<path d="M1920 0H0V300H1920V0Z" fill="white"/>
</mask>
<g mask="url(#mask3_220_552)">
<g opacity="0.2">
<path d="M517.3 269.06L333.7 173L383.74 77.36L567.34 173.42C593.75 187.24 603.96 219.85 590.14 246.26C576.32 272.67 543.71 282.88 517.3 269.06Z" fill="url(#paint2_linear_220_552)" fill-opacity="0.3"/>
</g>
</g>
<mask id="mask4_220_552" style="mask-type:luminance" maskUnits="userSpaceOnUse" x="0" y="0" width="1920" height="300">
<path d="M1920 0H0V300H1920V0Z" fill="white"/>
</mask>
<g mask="url(#mask4_220_552)">
<g opacity="0.32">
<path d="M728.3 221.06L544.7 125L594.74 29.36L778.34 125.42C804.75 139.24 814.96 171.85 801.14 198.26C787.32 224.67 754.71 234.88 728.3 221.06Z" fill="url(#paint3_linear_220_552)" fill-opacity="0.3"/>
</g>
</g>
<mask id="mask5_220_552" style="mask-type:luminance" maskUnits="userSpaceOnUse" x="0" y="0" width="1920" height="300">
<path d="M1920 0H0V300H1920V0Z" fill="white"/>
</mask>
<g mask="url(#mask5_220_552)">
<path d="M118.09 220.41L-90.75 111.15L-67.12 65.98L141.72 175.24C154.19 181.77 159.02 197.17 152.49 209.64C145.96 222.12 130.56 226.94 118.09 220.41Z" fill="url(#paint4_linear_220_552)" fill-opacity="0.3"/>
</g>
<mask id="mask6_220_552" style="mask-type:luminance" maskUnits="userSpaceOnUse" x="0" y="0" width="1920" height="300">
<path d="M1920 0H0V300H1920V0Z" fill="white"/>
</mask>
<g mask="url(#mask6_220_552)">
<path d="M439.45 74.12L248.18 -25.95C243.33 -28.49 241.45 -34.48 243.99 -39.33L267.62 -84.5C270.16 -89.35 276.15 -91.23 281 -88.69L472.28 11.38C489.6 20.44 496.3 41.84 487.24 59.16C478.17 76.49 456.78 83.19 439.45 74.12Z" fill="url(#paint5_linear_220_552)" fill-opacity="0.3"/>
</g>
<mask id="mask7_220_552" style="mask-type:luminance" maskUnits="userSpaceOnUse" x="0" y="0" width="1920" height="300">
<path d="M1920 0H0V300H1920V0Z" fill="white"/>
</mask>
<g mask="url(#mask7_220_552)">
<path d="M435.39 140.34L371.8 116.24C361.73 112.42 356.66 101.17 360.48 91.09C364.3 81.02 375.55 75.95 385.63 79.77L449.22 103.87C459.29 107.69 464.36 118.94 460.54 129.02C456.72 139.08 445.46 144.15 435.39 140.34Z" fill="url(#paint6_linear_220_552)" fill-opacity="0.3"/>
</g>
<mask id="mask8_220_552" style="mask-type:luminance" maskUnits="userSpaceOnUse" x="0" y="0" width="1920" height="300">
<path d="M1920 0H0V300H1920V0Z" fill="white"/>
</mask>
<g mask="url(#mask8_220_552)">
<path d="M74.88 264.6L11.29 240.5C1.21999 236.68 -3.85001 225.42 -0.0300074 215.35C3.78999 205.28 15.04 200.21 25.12 204.03L88.71 228.13C98.78 231.95 103.85 243.2 100.03 253.28C96.21 263.34 84.95 268.41 74.88 264.6Z" fill="url(#paint7_linear_220_552)" fill-opacity="0.3"/>
</g>
<mask id="mask9_220_552" style="mask-type:luminance" maskUnits="userSpaceOnUse" x="0" y="0" width="1920" height="300">
<path d="M1920 0H0V300H1920V0Z" fill="white"/>
</mask>
<g mask="url(#mask9_220_552)">
<path d="M299.25 129.99L168.11 61.39C146.33 50 137.92 23.11 149.31 1.32999C160.7 -20.45 187.59 -28.86 209.37 -17.47L340.51 51.14C362.29 62.53 370.7 89.42 359.31 111.2C347.91 132.97 321.02 141.39 299.25 129.99Z" fill="url(#paint8_linear_220_552)" fill-opacity="0.3"/>
</g>
<mask id="mask10_220_552" style="mask-type:luminance" maskUnits="userSpaceOnUse" x="0" y="0" width="1920" height="300">
<path d="M1920 0H0V300H1920V0Z" fill="white"/>
</mask>
<g mask="url(#mask10_220_552)">
<path d="M1745.6 116.25L1900.77 187.62L1876.9 239.51L1721.73 168.14C1707.4 161.55 1701.13 144.59 1707.72 130.26C1714.31 115.93 1731.27 109.65 1745.6 116.25Z" fill="url(#paint9_linear_220_552)" fill-opacity="0.3"/>
</g>
<mask id="mask11_220_552" style="mask-type:luminance" maskUnits="userSpaceOnUse" x="0" y="0" width="1920" height="300">
<path d="M1920 0H0V300H1920V0Z" fill="white"/>
</mask>
<g mask="url(#mask11_220_552)">
<path d="M1667.79 2.80999L1811.48 68.9L1777.05 143.75L1633.36 77.66C1612.69 68.15 1603.64 43.69 1613.15 23.02C1622.66 2.34999 1647.12 -6.70001 1667.79 2.80999Z" fill="url(#paint10_linear_220_552)" fill-opacity="0.3"/>
</g>
<mask id="mask12_220_552" style="mask-type:luminance" maskUnits="userSpaceOnUse" x="0" y="0" width="1920" height="300">
<path d="M1920 0H0V300H1920V0Z" fill="white"/>
</mask>
<g mask="url(#mask12_220_552)">
<path d="M1836.46 67.81L1999.9 142.98L1983.64 178.33L1820.2 103.16C1810.44 98.67 1806.16 87.12 1810.65 77.35C1815.14 67.59 1826.7 63.32 1836.46 67.81Z" fill="url(#paint11_linear_220_552)" fill-opacity="0.3"/>
</g>
<mask id="mask13_220_552" style="mask-type:luminance" maskUnits="userSpaceOnUse" x="0" y="0" width="1920" height="300">
<path d="M1920 0H0V300H1920V0Z" fill="white"/>
</mask>
<g mask="url(#mask13_220_552)">
<path d="M1597.17 191.81L1746.86 260.66C1750.66 262.41 1752.32 266.9 1750.57 270.69L1734.31 306.04C1732.56 309.84 1728.07 311.5 1724.28 309.75L1574.59 240.9C1561.03 234.66 1555.1 218.62 1561.33 205.06C1567.57 191.51 1583.62 185.57 1597.17 191.81Z" fill="url(#paint12_linear_220_552)" fill-opacity="0.3"/>
</g>
<mask id="mask14_220_552" style="mask-type:luminance" maskUnits="userSpaceOnUse" x="0" y="0" width="1920" height="300">
<path d="M1920 0H0V300H1920V0Z" fill="white"/>
</mask>
<g mask="url(#mask14_220_552)">
<g opacity="0.3">
<path d="M1356.17 236.81L1505.86 305.66C1509.66 307.41 1511.32 311.9 1509.57 315.69L1493.31 351.04C1491.56 354.84 1487.07 356.5 1483.28 354.75L1333.59 285.9C1320.03 279.66 1314.1 263.62 1320.33 250.06C1326.57 236.51 1342.62 230.57 1356.17 236.81Z" fill="url(#paint13_linear_220_552)" fill-opacity="0.3"/>
</g>
</g>
<mask id="mask15_220_552" style="mask-type:luminance" maskUnits="userSpaceOnUse" x="0" y="0" width="1920" height="300">
<path d="M1920 0H0V300H1920V0Z" fill="white"/>
</mask>
<g mask="url(#mask15_220_552)">
<path d="M1601.03 138.55L1647.68 161.29C1655.07 164.89 1658.14 173.8 1654.54 181.19C1650.94 188.58 1642.03 191.65 1634.64 188.05L1587.99 165.31C1580.6 161.71 1577.53 152.8 1581.13 145.41C1584.74 138.01 1593.65 134.94 1601.03 138.55Z" fill="url(#paint14_linear_220_552)" fill-opacity="0.3"/>
</g>
<mask id="mask16_220_552" style="mask-type:luminance" maskUnits="userSpaceOnUse" x="0" y="0" width="1920" height="300">
<path d="M1920 0H0V300H1920V0Z" fill="white"/>
</mask>
<g mask="url(#mask16_220_552)">
<g opacity="0.3">
<path d="M1413.03 14.55L1459.68 37.29C1467.07 40.89 1470.14 49.8 1466.54 57.19C1462.94 64.58 1454.03 67.65 1446.64 64.05L1399.99 41.31C1392.6 37.71 1389.53 28.8 1393.13 21.41C1396.74 14.01 1405.65 10.94 1413.03 14.55Z" fill="url(#paint15_linear_220_552)" fill-opacity="0.3"/>
</g>
</g>
<mask id="mask17_220_552" style="mask-type:luminance" maskUnits="userSpaceOnUse" x="0" y="0" width="1920" height="300">
<path d="M1920 0H0V300H1920V0Z" fill="white"/>
</mask>
<g mask="url(#mask17_220_552)">
<path d="M1839.69 23.18L1889.1 39.08C1896.92 41.6 1901.23 49.98 1898.71 57.81C1896.19 65.63 1887.81 69.94 1879.98 67.42L1830.57 51.52C1822.75 49 1818.44 40.62 1820.96 32.79C1823.48 24.96 1831.87 20.66 1839.69 23.18Z" fill="url(#paint16_linear_220_552)" fill-opacity="0.3"/>
</g>
<mask id="mask18_220_552" style="mask-type:luminance" maskUnits="userSpaceOnUse" x="0" y="0" width="1920" height="300">
<path d="M1920 0H0V300H1920V0Z" fill="white"/>
</mask>
<g mask="url(#mask18_220_552)">
<path d="M1757.88 191.77L1860.51 238.97C1877.55 246.81 1885.01 266.98 1877.17 284.02C1869.33 301.06 1849.16 308.52 1832.12 300.68L1729.49 253.48C1712.45 245.64 1704.99 225.47 1712.83 208.43C1720.67 191.39 1740.84 183.93 1757.88 191.77Z" fill="url(#paint17_linear_220_552)" fill-opacity="0.3"/>
</g>
<mask id="mask19_220_552" style="mask-type:luminance" maskUnits="userSpaceOnUse" x="0" y="0" width="1920" height="300">
<path d="M1920 0H0V300H1920V0Z" fill="white"/>
</mask>
<g mask="url(#mask19_220_552)">
<g opacity="0.31">
<path d="M687.48 277.41L623.89 253.31C613.82 249.49 608.75 238.24 612.57 228.16C616.39 218.09 627.64 213.02 637.72 216.84L701.31 240.94C711.38 244.76 716.45 256.01 712.63 266.09C708.81 276.16 697.55 281.23 687.48 277.41Z" fill="url(#paint18_linear_220_552)" fill-opacity="0.3"/>
</g>
</g>
<mask id="mask20_220_552" style="mask-type:luminance" maskUnits="userSpaceOnUse" x="0" y="0" width="1920" height="300">
<path d="M1920 0H0V300H1920V0Z" fill="white"/>
</mask>
<g mask="url(#mask20_220_552)">
<g opacity="0.2">
<path d="M1384.78 75.53L1571.04 166.33L1523.74 263.36L1337.48 172.56C1310.69 159.5 1299.55 127.19 1312.62 100.4C1325.68 73.6 1357.99 62.47 1384.78 75.53Z" fill="url(#paint19_linear_220_552)" fill-opacity="0.3"/>
</g>
</g>
<rect x="-3" y="-3" width="1920" height="300" fill="#F0F7FC" fill-opacity="0.25"/>
<defs>
<linearGradient id="paint0_linear_220_552" x1="11.8404" y1="-8.19145" x2="218.247" y2="73.7987" gradientUnits="userSpaceOnUse">
<stop stop-color="#CCE0F4" stop-opacity="0"/>
<stop offset="0.137" stop-color="#C2DDF4" stop-opacity="0.1378"/>
<stop offset="0.3716" stop-color="#A6D3F2" stop-opacity="0.3737"/>
<stop offset="0.6753" stop-color="#7AC4F0" stop-opacity="0.6791"/>
<stop offset="0.9944" stop-color="#44B2EE"/>
</linearGradient>
<linearGradient id="paint1_linear_220_552" x1="83.6509" y1="67.5041" x2="280.932" y2="249.039" gradientUnits="userSpaceOnUse">
<stop offset="0.286" stop-color="#CCE0F4" stop-opacity="0"/>
<stop offset="0.3885" stop-color="#C0DCF3" stop-opacity="0.1446"/>
<stop offset="0.5736" stop-color="#A0D1F2" stop-opacity="0.406"/>
<stop offset="0.8185" stop-color="#6DC0F0" stop-opacity="0.7517"/>
<stop offset="0.9944" stop-color="#44B2EE"/>
</linearGradient>
<linearGradient id="paint2_linear_220_552" x1="357.638" y1="86.5108" x2="554.92" y2="268.045" gradientUnits="userSpaceOnUse">
<stop offset="0.286" stop-color="#CCE0F4" stop-opacity="0"/>
<stop offset="0.3955" stop-color="#A4D2F2" stop-opacity="0.1545"/>
<stop offset="0.5104" stop-color="#81C7F1" stop-opacity="0.3167"/>
<stop offset="0.6275" stop-color="#66BEF0" stop-opacity="0.482"/>
<stop offset="0.7461" stop-color="#53B7EF" stop-opacity="0.6495"/>
<stop offset="0.8672" stop-color="#48B3EE" stop-opacity="0.8204"/>
<stop offset="0.9944" stop-color="#44B2EE"/>
</linearGradient>
<linearGradient id="paint3_linear_220_552" x1="568.63" y1="38.5187" x2="765.911" y2="220.053" gradientUnits="userSpaceOnUse">
<stop offset="0.286" stop-color="#CCE0F4" stop-opacity="0"/>
<stop offset="0.3439" stop-color="#BDDBF3" stop-opacity="0.0816"/>
<stop offset="0.5601" stop-color="#89C9F1" stop-opacity="0.3869"/>
<stop offset="0.7484" stop-color="#64BDEF" stop-opacity="0.6527"/>
<stop offset="0.8995" stop-color="#4CB5EE" stop-opacity="0.866"/>
<stop offset="0.9944" stop-color="#44B2EE"/>
</linearGradient>
<linearGradient id="paint4_linear_220_552" x1="-49.3605" y1="117.312" x2="149.15" y2="186.334" gradientUnits="userSpaceOnUse">
<stop stop-color="#CCE0F4" stop-opacity="0"/>
<stop offset="0.4059" stop-color="#93CDF1" stop-opacity="0.4081"/>
<stop offset="0.9944" stop-color="#44B2EE"/>
</linearGradient>
<linearGradient id="paint5_linear_220_552" x1="287.597" y1="-36.4764" x2="487.913" y2="44.2596" gradientUnits="userSpaceOnUse">
<stop stop-color="#CCE0F4" stop-opacity="0"/>
<stop offset="0.1537" stop-color="#A4D2F2" stop-opacity="0.1545"/>
<stop offset="0.3149" stop-color="#81C7F1" stop-opacity="0.3167"/>
<stop offset="0.4793" stop-color="#66BEF0" stop-opacity="0.482"/>
<stop offset="0.6458" stop-color="#53B7EF" stop-opacity="0.6495"/>
<stop offset="0.8158" stop-color="#48B3EE" stop-opacity="0.8204"/>
<stop offset="0.9944" stop-color="#44B2EE"/>
</linearGradient>
<linearGradient id="paint6_linear_220_552" x1="374.028" y1="98.8799" x2="462.447" y2="125.985" gradientUnits="userSpaceOnUse">
<stop offset="0.4671" stop-color="#CCE0F4" stop-opacity="0"/>
<stop offset="0.5486" stop-color="#A4D2F2" stop-opacity="0.1545"/>
<stop offset="0.6341" stop-color="#81C7F1" stop-opacity="0.3167"/>
<stop offset="0.7213" stop-color="#66BEF0" stop-opacity="0.482"/>
<stop offset="0.8096" stop-color="#53B7EF" stop-opacity="0.6495"/>
<stop offset="0.8997" stop-color="#48B3EE" stop-opacity="0.8204"/>
<stop offset="0.9944" stop-color="#44B2EE"/>
</linearGradient>
<linearGradient id="paint7_linear_220_552" x1="34.7052" y1="229.616" x2="123.124" y2="256.721" gradientUnits="userSpaceOnUse">
<stop offset="0.143" stop-color="#CCE0F4" stop-opacity="0"/>
<stop offset="0.2746" stop-color="#A4D2F2" stop-opacity="0.1545"/>
<stop offset="0.4126" stop-color="#81C7F1" stop-opacity="0.3167"/>
<stop offset="0.5534" stop-color="#66BEF0" stop-opacity="0.482"/>
<stop offset="0.696" stop-color="#53B7EF" stop-opacity="0.6495"/>
<stop offset="0.8415" stop-color="#48B3EE" stop-opacity="0.8204"/>
<stop offset="0.9944" stop-color="#44B2EE"/>
</linearGradient>
<linearGradient id="paint8_linear_220_552" x1="193.102" y1="-0.0608852" x2="347.653" y2="142.147" gradientUnits="userSpaceOnUse">
<stop stop-color="white" stop-opacity="0"/>
<stop offset="0.0993" stop-color="#F9FCFE" stop-opacity="0.1105"/>
<stop offset="0.2382" stop-color="#E6F5FD" stop-opacity="0.265"/>
<stop offset="0.4004" stop-color="#C8E9FA" stop-opacity="0.4455"/>
<stop offset="0.5803" stop-color="#9FD7F6" stop-opacity="0.6458"/>
<stop offset="0.7725" stop-color="#6AC2F1" stop-opacity="0.8596"/>
<stop offset="0.8973" stop-color="#44B2EE" stop-opacity="0.9985"/>
<stop offset="0.8979" stop-color="#44B2EE" stop-opacity="0.9985"/>
<stop offset="0.9944" stop-color="#44B2EE"/>
</linearGradient>
<linearGradient id="paint9_linear_220_552" x1="1868.04" y1="197.037" x2="1707.51" y2="142.555" gradientUnits="userSpaceOnUse">
<stop stop-color="#CCE0F4" stop-opacity="0"/>
<stop offset="0.137" stop-color="#C2DDF4" stop-opacity="0.1378"/>
<stop offset="0.3716" stop-color="#A6D3F2" stop-opacity="0.3737"/>
<stop offset="0.6753" stop-color="#7AC4F0" stop-opacity="0.6791"/>
<stop offset="0.9944" stop-color="#44B2EE"/>
</linearGradient>
<linearGradient id="paint10_linear_220_552" x1="1796.58" y1="135.733" x2="1639.14" y2="5.01314" gradientUnits="userSpaceOnUse">
<stop offset="0.286" stop-color="#CCE0F4" stop-opacity="0"/>
<stop offset="0.3955" stop-color="#A4D2F2" stop-opacity="0.1545"/>
<stop offset="0.5104" stop-color="#81C7F1" stop-opacity="0.3167"/>
<stop offset="0.6275" stop-color="#66BEF0" stop-opacity="0.482"/>
<stop offset="0.7461" stop-color="#53B7EF" stop-opacity="0.6495"/>
<stop offset="0.8672" stop-color="#48B3EE" stop-opacity="0.8204"/>
<stop offset="0.9944" stop-color="#44B2EE"/>
</linearGradient>
<linearGradient id="paint11_linear_220_552" x1="1968.11" y1="139.862" x2="1814.1" y2="94.9583" gradientUnits="userSpaceOnUse">
<stop stop-color="#CCE0F4" stop-opacity="0"/>
<stop offset="0.4059" stop-color="#93CDF1" stop-opacity="0.4081"/>
<stop offset="0.9944" stop-color="#44B2EE"/>
</linearGradient>
<linearGradient id="paint12_linear_220_552" x1="1717.22" y1="270.186" x2="1561.38" y2="216.423" gradientUnits="userSpaceOnUse">
<stop stop-color="#CCE0F4" stop-opacity="0"/>
<stop offset="0.1537" stop-color="#A4D2F2" stop-opacity="0.1545"/>
<stop offset="0.3149" stop-color="#81C7F1" stop-opacity="0.3167"/>
<stop offset="0.4793" stop-color="#66BEF0" stop-opacity="0.482"/>
<stop offset="0.6458" stop-color="#53B7EF" stop-opacity="0.6495"/>
<stop offset="0.8158" stop-color="#48B3EE" stop-opacity="0.8204"/>
<stop offset="0.9944" stop-color="#44B2EE"/>
</linearGradient>
<linearGradient id="paint13_linear_220_552" x1="1476.22" y1="315.177" x2="1320.38" y2="261.414" gradientUnits="userSpaceOnUse">
<stop stop-color="#CCE0F4" stop-opacity="0"/>
<stop offset="0.1537" stop-color="#A4D2F2" stop-opacity="0.1545"/>
<stop offset="0.3149" stop-color="#81C7F1" stop-opacity="0.3167"/>
<stop offset="0.4793" stop-color="#66BEF0" stop-opacity="0.482"/>
<stop offset="0.6458" stop-color="#53B7EF" stop-opacity="0.6495"/>
<stop offset="0.8158" stop-color="#48B3EE" stop-opacity="0.8204"/>
<stop offset="0.9944" stop-color="#44B2EE"/>
</linearGradient>
<linearGradient id="paint14_linear_220_552" x1="1644.78" y1="174.329" x2="1579.45" y2="147.576" gradientUnits="userSpaceOnUse">
<stop offset="0.4671" stop-color="#CCE0F4" stop-opacity="0"/>
<stop offset="0.5486" stop-color="#A4D2F2" stop-opacity="0.1545"/>
<stop offset="0.6341" stop-color="#81C7F1" stop-opacity="0.3167"/>
<stop offset="0.7213" stop-color="#66BEF0" stop-opacity="0.482"/>
<stop offset="0.8096" stop-color="#53B7EF" stop-opacity="0.6495"/>
<stop offset="0.8997" stop-color="#48B3EE" stop-opacity="0.8204"/>
<stop offset="0.9944" stop-color="#44B2EE"/>
</linearGradient>
<linearGradient id="paint15_linear_220_552" x1="1456.77" y1="50.3283" x2="1391.45" y2="23.5749" gradientUnits="userSpaceOnUse">
<stop stop-color="#CCE0F4" stop-opacity="0"/>
<stop offset="0.2575" stop-color="#C9DFF4" stop-opacity="0.2589"/>
<stop offset="0.4241" stop-color="#C1DCF3" stop-opacity="0.4265"/>
<stop offset="0.565" stop-color="#B2D7F3" stop-opacity="0.5682"/>
<stop offset="0.6916" stop-color="#9DD0F2" stop-opacity="0.6955"/>
<stop offset="0.8085" stop-color="#82C7F1" stop-opacity="0.8131"/>
<stop offset="0.9169" stop-color="#61BCEF" stop-opacity="0.9221"/>
<stop offset="0.9944" stop-color="#44B2EE"/>
</linearGradient>
<linearGradient id="paint16_linear_220_552" x1="1871.68" y1="48.2442" x2="1803.22" y2="31.0172" gradientUnits="userSpaceOnUse">
<stop offset="0.143" stop-color="#CCE0F4" stop-opacity="0"/>
<stop offset="0.2746" stop-color="#A4D2F2" stop-opacity="0.1545"/>
<stop offset="0.4126" stop-color="#81C7F1" stop-opacity="0.3167"/>
<stop offset="0.5534" stop-color="#66BEF0" stop-opacity="0.482"/>
<stop offset="0.696" stop-color="#53B7EF" stop-opacity="0.6495"/>
<stop offset="0.8415" stop-color="#48B3EE" stop-opacity="0.8204"/>
<stop offset="0.9944" stop-color="#44B2EE"/>
</linearGradient>
<linearGradient id="paint17_linear_220_552" x1="1843.85" y1="286.756" x2="1720.53" y2="184.361" gradientUnits="userSpaceOnUse">
<stop stop-color="white" stop-opacity="0"/>
<stop offset="0.0993" stop-color="#F9FCFE" stop-opacity="0.1105"/>
<stop offset="0.2382" stop-color="#E6F5FD" stop-opacity="0.265"/>
<stop offset="0.4004" stop-color="#C8E9FA" stop-opacity="0.4455"/>
<stop offset="0.5803" stop-color="#9FD7F6" stop-opacity="0.6458"/>
<stop offset="0.7725" stop-color="#6AC2F1" stop-opacity="0.8596"/>
<stop offset="0.8973" stop-color="#44B2EE" stop-opacity="0.9985"/>
<stop offset="0.8979" stop-color="#44B2EE" stop-opacity="0.9985"/>
<stop offset="0.9944" stop-color="#44B2EE"/>
</linearGradient>
<linearGradient id="paint18_linear_220_552" x1="626.101" y1="235.958" x2="714.52" y2="263.063" gradientUnits="userSpaceOnUse">
<stop offset="0.4671" stop-color="#CCE0F4" stop-opacity="0"/>
<stop offset="0.5486" stop-color="#A4D2F2" stop-opacity="0.1545"/>
<stop offset="0.6341" stop-color="#81C7F1" stop-opacity="0.3167"/>
<stop offset="0.7213" stop-color="#66BEF0" stop-opacity="0.482"/>
<stop offset="0.8096" stop-color="#53B7EF" stop-opacity="0.6495"/>
<stop offset="0.8997" stop-color="#48B3EE" stop-opacity="0.8204"/>
<stop offset="0.9944" stop-color="#44B2EE"/>
</linearGradient>
<linearGradient id="paint19_linear_220_552" x1="1549.53" y1="253.505" x2="1347.13" y2="77.646" gradientUnits="userSpaceOnUse">
<stop offset="0.286" stop-color="#CCE0F4" stop-opacity="0"/>
<stop offset="0.3955" stop-color="#A4D2F2" stop-opacity="0.1545"/>
<stop offset="0.5104" stop-color="#81C7F1" stop-opacity="0.3167"/>
<stop offset="0.6275" stop-color="#66BEF0" stop-opacity="0.482"/>
<stop offset="0.7461" stop-color="#53B7EF" stop-opacity="0.6495"/>
<stop offset="0.8672" stop-color="#48B3EE" stop-opacity="0.8204"/>
<stop offset="0.9944" stop-color="#44B2EE"/>
</linearGradient>
</defs>
</svg>
