<svg width="111" height="148" viewBox="0 0 111 148" fill="none" xmlns="http://www.w3.org/2000/svg">
<g filter="url(#filter0_d_177_12)">
<path d="M38.7539 0.492188C38.4258 0.738281 36.5391 4.01953 34.543 7.79297C32.5742 11.5664 30.8242 14.7656 30.6328 14.9297C30.4688 15.0938 26.9414 15.8047 22.8125 16.5156C18.6836 17.2539 14.9922 17.9922 14.6094 18.1836C14.2266 18.375 13.7617 18.8672 13.5703 19.3047C13.2422 19.9883 13.3242 21.1094 14.3086 28.1641L15.4297 36.2305C11.9297 39.8398 9.41406 42.4102 7.58203 44.2969C5.42188 46.5391 4.19141 47.9883 4.08203 48.5352C3.97266 49 3.97266 49.6562 4.08203 50.0391C4.19141 50.4219 5.75 52.2539 7.58203 54.1406C9.41406 56.0273 11.9297 58.5977 13.1602 59.8828L15.4297 62.207C13.3242 77.3281 13.2422 78.4492 13.5703 79.1328C13.7617 79.5703 14.2266 80.0625 14.6094 80.2539C14.9922 80.4453 18.5469 81.1836 22.5391 81.8945C26.5312 82.5781 29.8125 83.207 29.8398 83.2891C29.8945 83.3438 29.7578 83.7266 29.5391 84.1641C29.3203 84.5742 24.207 93.4609 18.1914 103.906C10.918 116.484 7.22656 123.156 7.22656 123.676C7.22656 124.141 7.55469 124.742 8.18359 125.371C8.70312 125.891 9.38672 126.328 9.6875 126.328C9.98828 126.328 13.4609 125.836 17.3984 125.234C21.3633 124.605 24.8359 124.141 25.1094 124.195C25.5195 124.25 26.2305 125.836 28.4453 131.523C30.4141 136.555 31.4805 138.961 31.9727 139.398C32.4284 139.799 32.9935 140 33.668 140C34.2969 140 34.9258 139.781 35.2539 139.48C35.5547 139.18 40.1758 131.387 45.5078 122.117C50.8398 112.875 55.2695 105.301 55.3516 105.301C55.4336 105.301 59.8633 112.875 65.1953 122.117C70.5273 131.387 75.1484 139.18 75.4492 139.48C75.7773 139.781 76.4062 140 77.0078 140C77.7005 140 78.2747 139.799 78.7305 139.398C79.2227 138.961 80.2891 136.555 82.2578 131.523C84.4726 125.836 85.1836 124.25 85.5938 124.195C85.8672 124.141 89.3398 124.605 93.2773 125.234C97.2422 125.836 100.715 126.328 101.043 126.328C101.371 126.328 102.027 125.891 102.547 125.371C103.148 124.77 103.477 124.141 103.477 123.676C103.477 123.156 99.7851 116.484 92.5117 103.906C86.4961 93.4609 81.3828 84.5742 81.1641 84.1367C80.9453 83.7266 80.8086 83.3438 80.8359 83.2891C80.8906 83.2344 84.1719 82.6055 88.1641 81.8945C92.1562 81.1836 95.7109 80.4453 96.0938 80.2539C96.4766 80.0625 96.9414 79.5703 97.1328 79.1328C97.4609 78.4492 97.3789 77.3281 96.3945 70.2734L95.2734 62.207C98.5547 58.8164 101.07 56.2461 102.984 54.2773C104.871 52.3086 106.512 50.4219 106.621 50.0391C106.73 49.6562 106.73 49 106.621 48.5352C106.512 47.9883 105.254 46.5117 102.984 44.1602C101.07 42.1914 98.5547 39.6211 97.4062 38.418L95.2734 36.2305C97.3789 21.1094 97.4609 19.9883 97.1328 19.3047C96.9414 18.8672 96.4766 18.375 96.0938 18.1836C95.7109 17.9648 92.0195 17.2266 87.8906 16.5156C83.7617 15.8047 80.2344 15.0938 80.0703 14.9297C79.8789 14.7656 78.1289 11.5391 76.1602 7.79297C74.1641 4.01953 72.2774 0.738281 71.9492 0.492188C71.6211 0.21875 70.9648 0 70.5273 0C70.0078 0 67 1.33984 62.5156 3.55469L55.3516 7.10938C43.6484 1.3125 40.6953 0 40.1758 0C39.7109 0 39.082 0.21875 38.7539 0.492188Z" fill="black"/>
<path d="M38.0704 12.7698C36.1016 16.5706 34.4337 19.4143 34.0235 19.7151C33.5587 20.0706 31.1797 20.6174 26.2305 21.4924C22.3204 22.176 19.0938 22.7502 19.0938 22.7776C19.0665 22.8049 19.5313 26.0862 20.0782 30.0784C20.9258 35.9573 21.0626 37.4612 20.8165 38.0627C20.6251 38.4729 18.2462 41.1526 15.4844 44.0237L10.5079 49.219C18.2462 57.2854 20.6251 59.9651 20.8165 60.3752C21.0626 60.9768 20.9258 62.4807 20.0782 68.3596C19.5313 72.3518 19.0665 75.6331 19.0938 75.6604C19.0938 75.6878 22.3204 76.2893 26.2305 76.9729C31.1251 77.8206 33.5587 78.3948 34.0235 78.7229C34.4337 79.0237 35.9922 81.676 37.7969 85.0667C39.4922 88.2932 41.0508 91.1643 41.2149 91.4924C41.543 92.0393 41.7344 91.9573 48.1055 88.8401C51.7149 87.0627 54.9688 85.6135 55.3516 85.5862C55.7344 85.5862 58.9883 87.0354 62.5977 88.8127C68.9962 91.9846 69.1602 92.0667 69.4883 91.4924C69.6524 91.1643 71.211 88.2932 72.9063 85.0667C74.6837 81.7034 76.2969 79.0237 76.6797 78.7229C77.1446 78.3674 79.5508 77.8479 84.4727 76.9729C88.3829 76.2893 91.6094 75.6878 91.6094 75.6604C91.6368 75.6331 91.1719 72.3518 90.6251 68.3596C89.7774 62.5081 89.6407 60.9768 89.9141 60.3752C90.0782 59.9651 92.4571 57.2854 95.1915 54.4143L100.195 49.219C92.4571 41.1526 90.0782 38.4729 89.9141 38.0627C89.6407 37.4612 89.7774 35.9299 90.6251 30.0784C91.1719 26.0862 91.6368 22.8049 91.6094 22.7776C91.6094 22.7502 88.3829 22.1487 84.4727 21.4651C79.5782 20.6174 77.1446 20.0432 76.6797 19.7151C76.2696 19.4143 74.711 16.762 72.9063 13.3713C71.211 10.1448 69.6524 7.27368 69.4883 6.94556C69.1602 6.37134 68.9962 6.45337 62.5977 9.62524C58.9883 11.4026 55.7618 12.8518 55.4063 12.8518C55.0782 12.8518 53.3008 12.1409 51.4415 11.2385C49.6094 10.3635 46.6016 8.88696 44.7696 7.98462L41.461 6.34399L38.0704 12.7698Z" fill="#F8B303"/>
<path d="M24.453 103.961C19.5585 112.41 15.539 119.492 15.4843 119.684C15.4569 119.93 15.6484 119.985 16.1679 119.903C16.6054 119.821 19.3398 119.383 22.2655 118.946C27.0234 118.235 27.6796 118.207 28.4179 118.535C28.8827 118.754 29.4023 119.219 29.5663 119.547C29.7577 119.903 30.7968 122.5 31.8905 125.317C32.9843 128.16 33.996 130.457 34.1601 130.457C34.3241 130.43 39.3827 121.844 45.453 111.344C51.496 100.871 56.4452 92.2033 56.4452 92.094C56.4452 91.9572 56.1991 91.7658 55.8983 91.6018C55.4608 91.383 54.3398 91.8479 49.828 94.1447L44.2773 96.9338C40.9413 102.758 40.121 103.879 39.5741 104.153C39.0819 104.371 38.5077 104.453 37.9882 104.317C37.5233 104.207 36.8398 103.77 36.4023 103.332C35.9648 102.84 35.664 102.238 35.664 101.801C35.664 101.363 36.1835 100.106 36.7851 98.9846L37.8788 96.9338C34.6249 90.7815 33.6132 88.9221 33.5038 88.8127C33.3944 88.7033 29.3202 95.5119 24.453 103.961ZM75.7499 91.5197C74.8749 93.133 73.8358 95.0197 73.4804 95.7033L72.8241 96.9338C74.5468 100.106 75.039 101.363 75.039 101.801C75.039 102.211 74.7382 102.922 74.3554 103.36C73.9726 103.824 73.289 104.262 72.7968 104.344C72.2226 104.453 71.5937 104.344 71.0741 104.098C70.4726 103.797 69.7616 102.813 68.4218 100.461C67.4374 98.6565 66.453 97.0705 66.2343 96.8791C66.0429 96.6877 64.9765 96.1135 63.9101 95.5666C62.8163 95.0471 61.8046 94.6096 61.6405 94.6096C61.4765 94.6096 60.7382 95.758 59.9726 97.1526C58.578 99.6135 58.578 99.6955 58.9882 100.488C59.2343 100.926 63.2265 107.899 67.8749 115.938C72.5507 123.977 76.4335 130.567 76.5429 130.567C76.6523 130.567 77.7187 128.106 78.9218 125.098C80.0976 122.09 81.1366 119.52 81.1913 119.356C81.246 119.219 81.7109 118.863 82.203 118.617C83.078 118.18 83.3241 118.18 88.4374 118.946C91.3632 119.383 94.0976 119.821 94.5351 119.903C94.9452 119.985 95.2734 119.957 95.2734 119.848C95.2734 119.711 91.2812 112.684 86.3593 104.18C81.4648 95.676 77.4179 88.7033 77.3905 88.6487C77.3632 88.594 76.6249 89.8791 75.7499 91.5197Z" fill="#40698D"/>
<path fill-rule="evenodd" clip-rule="evenodd" d="M56.3086 20.6446C58.7149 20.7266 60.5743 20.918 62.0508 21.3282C63.254 21.6289 64.7852 22.0938 65.4415 22.3672C66.0977 22.6133 66.8907 23.1329 67.1641 23.5157C67.4649 23.8985 67.6836 24.6368 67.6563 25.2383C67.6563 25.9493 67.4649 26.4414 66.9727 26.9336C66.5899 27.3164 66.0157 27.6993 65.6602 27.7813C65.3321 27.8633 64.1016 27.6446 62.8711 27.2344C61.668 26.8516 59.754 26.3868 58.6329 26.2227C57.4844 26.0313 55.461 25.9766 53.9844 26.0586C52.4532 26.168 50.4024 26.4961 48.9805 26.9336C47.668 27.3164 45.9454 27.9454 45.1524 28.3282C44.3868 28.7383 42.9922 29.5586 42.0899 30.1875C41.1875 30.7891 39.7657 31.9649 38.9454 32.8125C38.0977 33.6329 36.9219 35.0547 36.3204 35.9571C35.6915 36.8594 34.8711 38.2539 34.461 39.0469C34.0782 39.8125 33.4219 41.5352 33.0118 42.8477C32.3829 44.9805 32.3008 45.6914 32.3008 49.2188C32.3008 52.7461 32.3829 53.4571 33.0118 55.5899C33.4219 56.9024 34.0782 58.625 34.461 59.3907C34.8711 60.1836 35.6915 61.5782 36.3204 62.4805C36.9219 63.3829 38.0977 64.8047 38.9454 65.625C39.7657 66.4727 41.1875 67.6485 42.0899 68.25C42.9922 68.8789 44.3868 69.6993 45.1524 70.1094C45.9454 70.4922 47.668 71.1485 48.9805 71.5586C51.1133 72.1875 51.8243 72.2696 55.3516 72.2696C58.879 72.2696 59.5899 72.1875 61.7227 71.5586C63.0352 71.1485 64.7579 70.4922 65.5235 70.1094C66.3165 69.6993 67.711 68.8789 68.6133 68.25C69.5157 67.6485 70.9375 66.4727 71.7579 65.625C72.6055 64.8047 73.7813 63.3829 74.3829 62.4805C75.0118 61.5782 75.8321 60.1836 76.2422 59.3907C76.625 58.625 77.254 56.9024 77.6368 55.5625C78.0196 54.25 78.4024 52.1993 78.4844 50.9961C78.5665 49.793 78.7852 48.4532 78.9493 48.0157C79.1407 47.5782 79.6055 47.0586 80.0157 46.8672C80.4532 46.6485 81.0274 46.4844 81.3282 46.4844C81.629 46.4844 82.2032 46.6485 82.6133 46.8672C83.0508 47.0586 83.543 47.6602 83.7618 48.1524C84.0625 48.836 84.1172 49.6836 83.9805 51.4063C83.8711 52.6914 83.5704 54.6602 83.2696 55.7813C82.9961 56.9024 82.3672 58.8164 81.9024 60.0196C81.4375 61.2227 80.3165 63.3829 79.3868 64.8047C78.4571 66.2266 76.7618 68.3321 75.6133 69.4805C74.4649 70.6289 72.4141 72.2696 71.0743 73.1446C69.7344 74.0469 67.6836 75.1407 66.5625 75.6329C65.4415 76.0977 63.3907 76.7813 62.0508 77.1368C59.9454 77.6836 58.961 77.7657 55.2149 77.7657C51.7149 77.7383 50.4297 77.6289 48.7891 77.1914C47.668 76.8633 45.754 76.2344 44.5508 75.7696C43.3477 75.3047 41.1875 74.1836 39.7657 73.2539C38.3438 72.3243 36.2383 70.6289 35.0899 69.4805C33.9415 68.3321 32.2461 66.2266 31.3165 64.8047C30.3868 63.3829 29.2657 61.2227 28.8008 60.0196C28.336 58.8164 27.7071 56.9024 27.4336 55.7813C27.1329 54.6602 26.8321 52.4454 26.7227 50.8594C26.6407 49.1641 26.6954 46.9766 26.8868 45.5274C27.0782 44.1875 27.6797 41.7266 28.2266 40.0586C28.8008 38.336 29.8125 36.0664 30.6055 34.7539C31.3438 33.4961 32.6563 31.6641 33.504 30.6524C34.3243 29.668 35.8282 28.1641 36.8125 27.3438C37.7969 26.5235 39.6563 25.211 40.9141 24.4727C42.1993 23.6797 44.4688 22.668 46.1915 22.0938C47.8594 21.5469 49.9922 20.9727 50.9766 20.8086C51.961 20.6719 54.3399 20.5899 56.3086 20.6446ZM77.4454 32.0196C77.8555 32.1016 78.3477 32.2657 78.5391 32.3477C78.7032 32.4571 79.0313 32.9493 79.25 33.4141C79.4688 33.9063 79.5782 34.6719 79.4961 35.1368C79.3868 35.7657 76.7891 38.5274 57.1016 58.2422H54.3946L49.0079 52.8282C45.2071 49 43.5665 47.1954 43.4297 46.6211C43.3477 46.1563 43.3477 45.5274 43.4297 45.1719C43.5118 44.8438 43.8399 44.3243 44.1407 44.0235C44.4415 43.7227 45.0157 43.3946 45.4532 43.3125C45.8633 43.2305 46.4922 43.2305 46.875 43.3399C47.2579 43.4219 49.418 45.3633 55.7618 51.6524L65.6055 41.8633C71.6758 35.793 75.6954 31.9922 76.0782 31.9375C76.4063 31.8829 77.0352 31.9102 77.4454 32.0196ZM32.875 108.555C33.2032 108.555 33.8047 108.719 34.2422 108.938C34.6524 109.129 35.1446 109.621 35.336 110.031C35.5 110.414 35.6641 110.988 35.6641 111.289C35.6641 111.59 35.5001 112.164 35.2813 112.574C35.0899 113.012 34.5977 113.504 34.1876 113.668C33.8047 113.859 33.2305 114.023 32.9297 114.023C32.629 114.023 32.0547 113.859 31.6719 113.668C31.2618 113.504 30.7696 113.012 30.5782 112.574C30.3594 112.164 30.1954 111.563 30.1954 111.207C30.2227 110.879 30.4141 110.305 30.6329 109.949C30.879 109.594 31.3438 109.129 31.6446 108.938C31.9727 108.746 32.5196 108.582 32.875 108.555ZM77.7188 108.555C78.0469 108.555 78.6485 108.719 79.086 108.938C79.4961 109.129 79.9883 109.621 80.1797 110.031C80.3438 110.414 80.5079 110.988 80.5079 111.289C80.5079 111.59 80.3438 112.164 80.125 112.574C79.9336 113.012 79.4415 113.504 79.0313 113.668C78.6485 113.859 78.0743 114.023 77.7735 114.023C77.4727 114.023 76.8985 113.859 76.5157 113.668C76.1055 113.504 75.6133 113.012 75.4219 112.574C75.2032 112.164 75.0391 111.563 75.0391 111.207C75.0665 110.879 75.2579 110.305 75.4766 109.949C75.7227 109.594 76.1875 109.129 76.4883 108.938C76.8164 108.746 77.3633 108.582 77.7188 108.555Z" fill="black"/>
</g>
<defs>
<filter id="filter0_d_177_12" x="0" y="0" width="110.703" height="148" filterUnits="userSpaceOnUse" color-interpolation-filters="sRGB">
<feFlood flood-opacity="0" result="BackgroundImageFix"/>
<feColorMatrix in="SourceAlpha" type="matrix" values="0 0 0 0 0 0 0 0 0 0 0 0 0 0 0 0 0 0 127 0" result="hardAlpha"/>
<feOffset dy="4"/>
<feGaussianBlur stdDeviation="2"/>
<feComposite in2="hardAlpha" operator="out"/>
<feColorMatrix type="matrix" values="0 0 0 0 0 0 0 0 0 0 0 0 0 0 0 0 0 0 0.25 0"/>
<feBlend mode="normal" in2="BackgroundImageFix" result="effect1_dropShadow_177_12"/>
<feBlend mode="normal" in="SourceGraphic" in2="effect1_dropShadow_177_12" result="shape"/>
</filter>
</defs>
</svg>
